<?xml version="1.0" encoding="UTF-8"?>
<svg xmlns="http://www.w3.org/2000/svg" xmlns:xlink="http://www.w3.org/1999/xlink" width="16pt" height="12pt" viewBox="0 0 16 12" version="1.1">
<g id="surface1">
<path style=" stroke:none;fill-rule:evenodd;fill:rgb(0%,0%,0%);fill-opacity:1;" d="M 8.160156 8.671875 L 8.734375 8.671875 L 8.734375 11.003906 L 8.160156 11.003906 Z M 8.160156 8.671875 "/>
<path style=" stroke:none;fill-rule:evenodd;fill:rgb(0%,0%,0%);fill-opacity:1;" d="M 9.269531 9.117188 L 9.84375 9.117188 L 9.84375 11.449219 L 9.269531 11.449219 Z M 9.269531 9.117188 "/>
<path style=" stroke:none;fill-rule:evenodd;fill:rgb(0%,0%,0%);fill-opacity:1;" d="M 8.382812 10.359375 C 8.019531 10.359375 7.804688 10.398438 7.726562 10.960938 C 7.691406 11.207031 7.761719 11.355469 7.875 11.445312 C 7.898438 11.34375 7.957031 11.121094 7.996094 11.050781 C 8.03125 11.320312 7.957031 11.375 7.996094 11.511719 C 8.128906 11.558594 8.292969 11.558594 8.441406 11.519531 C 8.824219 11.421875 9.039062 11.484375 9.039062 10.960938 C 9.039062 10.4375 8.746094 10.359375 8.382812 10.359375 Z M 8.382812 10.359375 "/>
<path style=" stroke:none;fill-rule:evenodd;fill:rgb(0%,0%,0%);fill-opacity:1;" d="M 9.445312 10.859375 C 9.070312 10.859375 8.847656 10.898438 8.765625 11.480469 C 8.730469 11.734375 8.800781 11.890625 8.921875 11.984375 C 8.945312 11.878906 9.003906 11.648438 9.046875 11.574219 C 9.082031 11.851562 9.007812 11.910156 9.046875 12.054688 C 9.183594 12.101562 9.351562 12.097656 9.507812 12.058594 C 9.902344 11.960938 10.125 12.023438 10.125 11.480469 C 10.125 10.9375 9.820312 10.859375 9.445312 10.859375 Z M 9.445312 10.859375 "/>
<path style=" stroke:none;fill-rule:evenodd;fill:rgb(0%,0%,0%);fill-opacity:1;" d="M 3.875 8.671875 L 4.445312 8.671875 L 4.445312 11.003906 L 3.875 11.003906 Z M 3.875 8.671875 "/>
<path style=" stroke:none;fill-rule:evenodd;fill:rgb(0%,0%,0%);fill-opacity:1;" d="M 4.984375 9.117188 L 5.558594 9.117188 L 5.558594 11.449219 L 4.984375 11.449219 Z M 4.984375 9.117188 "/>
<path style=" stroke:none;fill-rule:evenodd;fill:rgb(0%,0%,0%);fill-opacity:1;" d="M 4.09375 10.359375 C 3.734375 10.359375 3.515625 10.398438 3.4375 10.960938 C 3.40625 11.207031 3.472656 11.355469 3.585938 11.445312 C 3.609375 11.34375 3.667969 11.121094 3.707031 11.050781 C 3.746094 11.320312 3.671875 11.375 3.707031 11.511719 C 3.84375 11.558594 4.003906 11.558594 4.152344 11.519531 C 4.535156 11.421875 4.75 11.484375 4.75 10.960938 C 4.75 10.4375 4.457031 10.359375 4.09375 10.359375 Z M 4.09375 10.359375 "/>
<path style=" stroke:none;fill-rule:evenodd;fill:rgb(0%,0%,0%);fill-opacity:1;" d="M 5.160156 10.859375 C 4.785156 10.859375 4.558594 10.898438 4.480469 11.480469 C 4.445312 11.734375 4.515625 11.890625 4.632812 11.984375 C 4.65625 11.878906 4.71875 11.648438 4.757812 11.574219 C 4.796875 11.851562 4.71875 11.910156 4.757812 12.054688 C 4.898438 12.101562 5.066406 12.097656 5.21875 12.058594 C 5.613281 11.960938 5.839844 12.023438 5.839844 11.480469 C 5.839844 10.9375 5.535156 10.859375 5.160156 10.859375 Z M 5.160156 10.859375 "/>
<path style=" stroke:none;fill-rule:evenodd;fill:rgb(0%,0%,0%);fill-opacity:1;" d="M 4.792969 0.25 C 4.652344 0.332031 4.503906 0.398438 4.335938 0.402344 C 4.132812 0.449219 3.953125 0.628906 3.933594 0.839844 C 3.632812 0.867188 3.414062 1.214844 3.507812 1.5 C 2.695312 1.71875 2.035156 2.277344 1.46875 2.878906 C 0.925781 3.398438 0.617188 4.164062 0.699219 4.914062 C 0.777344 5.890625 1.472656 6.765625 2.367188 7.136719 C 2.308594 7.269531 2.320312 7.441406 2.417969 7.558594 C 2.246094 7.742188 2.285156 8.074219 2.5 8.203125 C 2.433594 8.421875 2.511719 8.683594 2.730469 8.78125 C 2.796875 8.941406 2.933594 9.066406 3.003906 9.226562 C 3.078125 9.320312 3.1875 9.394531 3.308594 9.40625 C 3.386719 9.601562 3.625 9.707031 3.824219 9.65625 C 3.914062 9.898438 4.246094 10.011719 4.460938 9.863281 C 4.695312 9.898438 4.921875 10.003906 5.15625 10.019531 C 5.269531 9.996094 5.394531 9.9375 5.496094 10.03125 C 5.660156 10.144531 5.886719 10.101562 6.03125 9.984375 C 6.179688 9.929688 6.300781 10.03125 6.429688 10.0625 C 6.71875 10.09375 7.007812 10.121094 7.292969 10.082031 C 7.433594 10.109375 7.570312 10.085938 7.683594 10 C 7.804688 9.933594 7.914062 10.003906 8.015625 10.066406 C 8.164062 10.121094 8.347656 10.097656 8.464844 9.988281 C 8.59375 9.988281 8.71875 9.921875 8.820312 10.035156 C 9.003906 10.117188 9.253906 10.0625 9.367188 9.890625 C 9.550781 10.015625 9.820312 9.988281 9.960938 9.8125 C 10.089844 9.757812 10.242188 9.730469 10.328125 9.605469 C 10.46875 9.472656 10.714844 9.515625 10.800781 9.320312 C 10.882812 9.207031 11.058594 9.21875 11.125 9.082031 C 11.214844 8.976562 11.210938 8.824219 11.214844 8.699219 C 11.261719 8.578125 11.347656 8.503906 11.457031 8.445312 C 11.59375 8.308594 11.652344 8.074219 11.539062 7.90625 C 11.617188 7.734375 11.824219 7.574219 11.726562 7.363281 C 11.65625 7.152344 11.707031 6.90625 11.578125 6.714844 C 11.703125 6.546875 11.703125 6.320312 11.578125 6.15625 C 11.554688 5.933594 11.449219 5.714844 11.285156 5.554688 C 11.304688 5.363281 11.246094 5.148438 11.054688 5.0625 C 10.917969 5.003906 10.960938 4.816406 10.832031 4.738281 C 10.679688 4.636719 10.550781 4.511719 10.421875 4.386719 C 10.320312 4.175781 10.042969 4.125 9.839844 4.214844 C 9.75 4.058594 9.582031 3.949219 9.398438 3.957031 C 9.273438 3.859375 9.164062 3.710938 8.980469 3.726562 C 8.871094 3.691406 8.746094 3.835938 8.675781 3.78125 C 8.539062 3.648438 8.328125 3.613281 8.160156 3.695312 C 8.050781 3.660156 7.953125 3.574219 7.835938 3.59375 C 7.765625 3.476562 7.746094 3.335938 7.652344 3.230469 C 7.632812 3.097656 7.804688 3.023438 7.789062 2.882812 C 7.847656 2.765625 7.699219 2.609375 7.839844 2.539062 C 8.039062 2.289062 7.9375 1.835938 7.613281 1.75 C 7.523438 1.636719 7.46875 1.46875 7.316406 1.421875 C 7.246094 1.273438 7.210938 1.09375 7.046875 1.011719 C 6.925781 0.917969 6.738281 0.96875 6.65625 0.824219 C 6.558594 0.75 6.445312 0.695312 6.320312 0.695312 C 6.21875 0.460938 5.929688 0.335938 5.6875 0.402344 C 5.542969 0.277344 5.335938 0.238281 5.15625 0.292969 C 5.042969 0.238281 4.914062 0.238281 4.792969 0.25 Z M 4.792969 0.25 "/>
<path style=" stroke:none;fill-rule:evenodd;fill:rgb(0%,100%,49.803922%);fill-opacity:1;" d="M 2.484375 2.199219 C 3.347656 1.636719 3.925781 1.402344 4.332031 2.027344 C 4.621094 2.46875 4.085938 3.222656 3.222656 3.785156 C 2.363281 4.34375 1.597656 4.703125 1.3125 4.261719 C 1.023438 3.820312 1.621094 2.761719 2.484375 2.199219 Z M 2.484375 2.199219 "/>
<path style=" stroke:none;fill-rule:evenodd;fill:rgb(0%,0%,0%);fill-opacity:1;" d="M 7.753906 3.699219 C 7.601562 3.703125 7.589844 3.949219 7.433594 3.890625 C 6.78125 3.867188 6.125 3.789062 5.472656 3.835938 C 4.371094 3.96875 3.433594 4.785156 3.003906 5.789062 C 2.839844 6.15625 2.742188 6.550781 2.703125 6.949219 C 2.425781 6.976562 2.3125 7.394531 2.539062 7.554688 C 2.433594 7.660156 2.347656 7.816406 2.421875 7.96875 C 2.441406 8.074219 2.59375 8.136719 2.621094 8.1875 C 2.496094 8.371094 2.597656 8.667969 2.820312 8.710938 C 2.816406 8.851562 2.945312 8.9375 3.011719 9.03125 C 3.039062 9.199219 3.203125 9.332031 3.375 9.320312 C 3.417969 9.53125 3.695312 9.644531 3.878906 9.539062 C 3.917969 9.792969 4.246094 9.9375 4.445312 9.765625 C 4.605469 9.816406 4.773438 9.828125 4.933594 9.878906 C 5.0625 9.957031 5.210938 9.941406 5.335938 9.867188 C 5.492188 9.886719 5.625 10.0625 5.800781 10 C 5.917969 9.988281 5.96875 9.828125 6.09375 9.886719 C 6.226562 9.851562 6.3125 9.902344 6.414062 9.972656 C 6.613281 9.996094 6.8125 9.984375 7.007812 10.015625 C 7.140625 10.035156 7.277344 9.941406 7.410156 10.007812 C 7.550781 10.023438 7.632812 9.859375 7.773438 9.894531 C 7.902344 9.8125 7.949219 9.957031 8.058594 9.988281 C 8.191406 10.03125 8.355469 9.996094 8.441406 9.882812 C 8.554688 9.957031 8.703125 9.769531 8.765625 9.898438 C 8.9375 10.054688 9.261719 9.988281 9.335938 9.765625 C 9.46875 9.847656 9.648438 9.941406 9.792969 9.832031 C 9.875 9.75 9.945312 9.667969 10.070312 9.679688 C 10.238281 9.628906 10.300781 9.425781 10.492188 9.421875 C 10.636719 9.40625 10.734375 9.296875 10.789062 9.167969 C 11.015625 9.175781 11.195312 8.902344 11.09375 8.695312 C 11.207031 8.644531 11.164062 8.460938 11.277344 8.453125 C 11.480469 8.378906 11.589844 8.09375 11.441406 7.921875 C 11.449219 7.789062 11.550781 7.726562 11.617188 7.628906 C 11.679688 7.523438 11.667969 7.375 11.589844 7.277344 C 11.632812 7.140625 11.546875 7.003906 11.5625 6.867188 C 11.507812 6.765625 11.410156 6.691406 11.542969 6.609375 C 11.621094 6.46875 11.589844 6.273438 11.460938 6.175781 C 11.515625 6.003906 11.378906 5.839844 11.300781 5.699219 C 11.183594 5.640625 11.15625 5.546875 11.195312 5.429688 C 11.203125 5.25 11.019531 5.117188 10.882812 5.082031 C 10.894531 4.917969 10.773438 4.75 10.613281 4.71875 C 10.566406 4.570312 10.367188 4.546875 10.324219 4.394531 C 10.203125 4.230469 9.964844 4.230469 9.808594 4.324219 C 9.71875 4.234375 9.675781 4.070312 9.515625 4.066406 C 9.398438 4.066406 9.277344 4.050781 9.230469 3.925781 C 9.09375 3.777344 8.816406 3.78125 8.695312 3.941406 C 8.605469 3.835938 8.5 3.722656 8.34375 3.738281 C 8.207031 3.757812 8.125 3.859375 8.019531 3.726562 C 7.941406 3.679688 7.839844 3.679688 7.753906 3.699219 Z M 7.859375 3.773438 C 7.726562 3.773438 7.621094 3.867188 7.601562 3.992188 L 5.820312 3.902344 C 4.171875 3.902344 2.886719 5.394531 2.789062 7.03125 C 2.78125 7.03125 2.777344 7.03125 2.773438 7.03125 C 2.625 7.03125 2.503906 7.148438 2.503906 7.289062 C 2.503906 7.386719 2.5625 7.46875 2.644531 7.511719 C 2.640625 7.53125 2.632812 7.546875 2.632812 7.566406 C 2.632812 7.582031 2.640625 7.597656 2.644531 7.613281 C 2.550781 7.652344 2.488281 7.738281 2.488281 7.84375 C 2.488281 7.988281 2.605469 8.101562 2.753906 8.101562 C 2.765625 8.101562 2.773438 8.097656 2.785156 8.097656 C 2.785156 8.101562 2.78125 8.101562 2.78125 8.101562 C 2.78125 8.121094 2.789062 8.140625 2.792969 8.15625 C 2.710938 8.203125 2.652344 8.28125 2.652344 8.378906 C 2.652344 8.523438 2.773438 8.640625 2.921875 8.640625 C 2.921875 8.640625 2.921875 8.640625 2.925781 8.640625 C 2.917969 8.660156 2.914062 8.675781 2.914062 8.695312 C 2.914062 8.8125 2.992188 8.90625 3.101562 8.941406 C 3.101562 8.953125 3.097656 8.960938 3.097656 8.972656 C 3.097656 9.117188 3.21875 9.230469 3.363281 9.230469 C 3.394531 9.230469 3.425781 9.226562 3.453125 9.214844 C 3.453125 9.222656 3.449219 9.226562 3.449219 9.230469 C 3.449219 9.375 3.566406 9.492188 3.714844 9.492188 C 3.789062 9.492188 3.851562 9.460938 3.902344 9.417969 C 3.925781 9.429688 3.949219 9.4375 3.976562 9.445312 C 3.972656 9.460938 3.964844 9.472656 3.964844 9.492188 C 3.964844 9.632812 4.085938 9.75 4.234375 9.75 C 4.316406 9.75 4.386719 9.714844 4.433594 9.660156 C 4.476562 9.691406 4.527344 9.714844 4.585938 9.714844 C 4.613281 9.714844 4.636719 9.703125 4.664062 9.699219 C 4.710938 9.742188 4.773438 9.769531 4.847656 9.769531 C 4.875 9.769531 4.898438 9.761719 4.925781 9.753906 C 4.972656 9.804688 5.042969 9.84375 5.121094 9.84375 C 5.207031 9.84375 5.277344 9.800781 5.324219 9.746094 C 5.371094 9.78125 5.429688 9.804688 5.492188 9.804688 C 5.496094 9.804688 5.496094 9.804688 5.5 9.804688 C 5.546875 9.871094 5.625 9.917969 5.714844 9.917969 C 5.828125 9.917969 5.925781 9.847656 5.964844 9.75 C 6.007812 9.78125 6.0625 9.804688 6.121094 9.804688 C 6.183594 9.804688 6.238281 9.78125 6.285156 9.746094 C 6.328125 9.835938 6.417969 9.898438 6.527344 9.898438 C 6.566406 9.898438 6.601562 9.890625 6.632812 9.878906 C 6.671875 9.898438 6.71875 9.917969 6.769531 9.917969 C 6.816406 9.917969 6.855469 9.902344 6.894531 9.882812 C 6.9375 9.914062 6.988281 9.9375 7.046875 9.9375 C 7.121094 9.9375 7.1875 9.90625 7.234375 9.859375 C 7.28125 9.894531 7.335938 9.917969 7.398438 9.917969 C 7.5 9.917969 7.585938 9.859375 7.632812 9.777344 C 7.667969 9.792969 7.707031 9.804688 7.75 9.804688 C 7.816406 9.804688 7.878906 9.777344 7.925781 9.738281 C 7.960938 9.839844 8.054688 9.917969 8.175781 9.917969 C 8.277344 9.917969 8.363281 9.859375 8.410156 9.777344 C 8.445312 9.792969 8.484375 9.804688 8.527344 9.804688 C 8.621094 9.804688 8.699219 9.753906 8.75 9.683594 C 8.769531 9.804688 8.875 9.898438 9.007812 9.898438 C 9.148438 9.898438 9.261719 9.792969 9.269531 9.660156 C 9.300781 9.667969 9.328125 9.675781 9.359375 9.675781 C 9.371094 9.675781 9.382812 9.671875 9.398438 9.667969 C 9.445312 9.738281 9.523438 9.789062 9.617188 9.789062 C 9.746094 9.789062 9.847656 9.699219 9.875 9.585938 C 9.902344 9.59375 9.9375 9.601562 9.96875 9.601562 C 10.085938 9.601562 10.183594 9.527344 10.222656 9.425781 C 10.285156 9.414062 10.34375 9.382812 10.382812 9.332031 C 10.398438 9.335938 10.414062 9.34375 10.433594 9.34375 C 10.582031 9.34375 10.699219 9.226562 10.699219 9.082031 C 10.699219 9.078125 10.699219 9.074219 10.699219 9.070312 C 10.71875 9.074219 10.742188 9.082031 10.765625 9.082031 C 10.914062 9.082031 11.03125 8.96875 11.03125 8.824219 C 11.03125 8.765625 11.007812 8.710938 10.972656 8.667969 C 11.0625 8.625 11.125 8.539062 11.125 8.4375 C 11.125 8.414062 11.117188 8.394531 11.113281 8.371094 C 11.125 8.375 11.140625 8.378906 11.152344 8.378906 C 11.300781 8.378906 11.421875 8.265625 11.421875 8.121094 C 11.421875 8.046875 11.386719 7.980469 11.332031 7.933594 C 11.363281 7.890625 11.382812 7.84375 11.382812 7.789062 C 11.382812 7.765625 11.375 7.742188 11.367188 7.71875 C 11.484375 7.691406 11.570312 7.59375 11.570312 7.476562 C 11.570312 7.402344 11.539062 7.335938 11.488281 7.289062 C 11.503906 7.257812 11.515625 7.21875 11.515625 7.179688 C 11.515625 7.125 11.492188 7.074219 11.460938 7.03125 C 11.46875 7.007812 11.476562 6.984375 11.476562 6.957031 C 11.476562 6.871094 11.433594 6.800781 11.367188 6.753906 C 11.367188 6.722656 11.359375 6.691406 11.347656 6.664062 C 11.433594 6.621094 11.496094 6.539062 11.496094 6.4375 C 11.496094 6.339844 11.433594 6.25 11.347656 6.207031 C 11.367188 6.171875 11.382812 6.132812 11.382812 6.085938 C 11.382812 6.007812 11.34375 5.9375 11.285156 5.890625 C 11.273438 5.792969 11.207031 5.710938 11.113281 5.679688 C 11.105469 5.640625 11.085938 5.601562 11.0625 5.574219 C 11.089844 5.53125 11.105469 5.492188 11.105469 5.441406 C 11.105469 5.296875 10.988281 5.179688 10.839844 5.179688 C 10.808594 5.179688 10.777344 5.1875 10.75 5.199219 C 10.746094 5.195312 10.742188 5.195312 10.742188 5.195312 C 10.773438 5.152344 10.792969 5.105469 10.792969 5.050781 C 10.792969 4.914062 10.679688 4.804688 10.542969 4.796875 C 10.515625 4.6875 10.425781 4.605469 10.308594 4.59375 C 10.300781 4.457031 10.1875 4.347656 10.042969 4.347656 C 9.96875 4.347656 9.902344 4.375 9.855469 4.421875 C 9.820312 4.410156 9.785156 4.402344 9.746094 4.402344 C 9.730469 4.402344 9.714844 4.410156 9.699219 4.414062 C 9.699219 4.410156 9.699219 4.40625 9.699219 4.402344 C 9.699219 4.261719 9.582031 4.144531 9.433594 4.144531 C 9.398438 4.144531 9.367188 4.152344 9.335938 4.160156 C 9.304688 4.128906 9.269531 4.101562 9.222656 4.085938 C 9.1875 3.980469 9.089844 3.90625 8.96875 3.90625 C 8.867188 3.90625 8.777344 3.960938 8.734375 4.046875 C 8.707031 4.039062 8.683594 4.03125 8.65625 4.03125 C 8.644531 4.03125 8.628906 4.039062 8.617188 4.039062 C 8.59375 3.921875 8.492188 3.832031 8.359375 3.832031 C 8.253906 3.832031 8.160156 3.890625 8.117188 3.980469 C 8.09375 3.863281 7.988281 3.773438 7.859375 3.773438 Z M 7.859375 3.773438 "/>
<path style=" stroke:none;fill-rule:evenodd;fill:rgb(0%,100%,49.803922%);fill-opacity:1;" d="M 7.859375 3.773438 C 7.726562 3.773438 7.621094 3.867188 7.601562 3.992188 L 5.820312 3.902344 C 4.171875 3.902344 2.886719 5.394531 2.789062 7.03125 C 2.78125 7.03125 2.777344 7.03125 2.773438 7.03125 C 2.625 7.03125 2.503906 7.148438 2.503906 7.289062 C 2.503906 7.386719 2.5625 7.46875 2.644531 7.511719 C 2.640625 7.53125 2.632812 7.546875 2.632812 7.566406 C 2.632812 7.582031 2.640625 7.597656 2.644531 7.613281 C 2.550781 7.652344 2.488281 7.738281 2.488281 7.84375 C 2.488281 7.988281 2.605469 8.101562 2.753906 8.101562 C 2.765625 8.101562 2.773438 8.097656 2.785156 8.097656 C 2.785156 8.101562 2.78125 8.101562 2.78125 8.101562 C 2.78125 8.121094 2.789062 8.140625 2.792969 8.15625 C 2.710938 8.203125 2.652344 8.28125 2.652344 8.378906 C 2.652344 8.523438 2.773438 8.640625 2.921875 8.640625 C 2.921875 8.640625 2.921875 8.640625 2.925781 8.640625 C 2.917969 8.660156 2.914062 8.675781 2.914062 8.695312 C 2.914062 8.8125 2.992188 8.90625 3.101562 8.941406 C 3.101562 8.953125 3.097656 8.960938 3.097656 8.972656 C 3.097656 9.117188 3.21875 9.230469 3.363281 9.230469 C 3.394531 9.230469 3.425781 9.226562 3.453125 9.214844 C 3.453125 9.222656 3.449219 9.226562 3.449219 9.230469 C 3.449219 9.375 3.566406 9.492188 3.714844 9.492188 C 3.789062 9.492188 3.851562 9.460938 3.902344 9.417969 C 3.925781 9.429688 3.949219 9.4375 3.976562 9.445312 C 3.972656 9.460938 3.964844 9.472656 3.964844 9.492188 C 3.964844 9.632812 4.085938 9.75 4.234375 9.75 C 4.316406 9.75 4.386719 9.714844 4.433594 9.660156 C 4.476562 9.691406 4.527344 9.714844 4.585938 9.714844 C 4.613281 9.714844 4.636719 9.703125 4.664062 9.699219 C 4.710938 9.742188 4.773438 9.769531 4.847656 9.769531 C 4.875 9.769531 4.898438 9.761719 4.925781 9.753906 C 4.972656 9.804688 5.042969 9.84375 5.121094 9.84375 C 5.207031 9.84375 5.277344 9.800781 5.324219 9.746094 C 5.371094 9.78125 5.429688 9.804688 5.492188 9.804688 C 5.496094 9.804688 5.496094 9.804688 5.5 9.804688 C 5.546875 9.871094 5.625 9.917969 5.714844 9.917969 C 5.828125 9.917969 5.925781 9.847656 5.964844 9.75 C 6.007812 9.78125 6.0625 9.804688 6.121094 9.804688 C 6.183594 9.804688 6.238281 9.78125 6.285156 9.746094 C 6.328125 9.835938 6.417969 9.898438 6.527344 9.898438 C 6.566406 9.898438 6.601562 9.890625 6.632812 9.878906 C 6.671875 9.898438 6.71875 9.917969 6.769531 9.917969 C 6.816406 9.917969 6.855469 9.902344 6.894531 9.882812 C 6.9375 9.914062 6.988281 9.9375 7.046875 9.9375 C 7.121094 9.9375 7.1875 9.90625 7.234375 9.859375 C 7.28125 9.894531 7.335938 9.917969 7.398438 9.917969 C 7.5 9.917969 7.585938 9.859375 7.632812 9.777344 C 7.667969 9.792969 7.707031 9.804688 7.75 9.804688 C 7.816406 9.804688 7.878906 9.777344 7.925781 9.738281 C 7.960938 9.839844 8.054688 9.917969 8.175781 9.917969 C 8.277344 9.917969 8.363281 9.859375 8.410156 9.777344 C 8.445312 9.792969 8.484375 9.804688 8.527344 9.804688 C 8.621094 9.804688 8.699219 9.753906 8.75 9.683594 C 8.769531 9.804688 8.875 9.898438 9.007812 9.898438 C 9.148438 9.898438 9.261719 9.792969 9.269531 9.660156 C 9.300781 9.667969 9.328125 9.675781 9.359375 9.675781 C 9.371094 9.675781 9.382812 9.671875 9.398438 9.667969 C 9.445312 9.738281 9.523438 9.789062 9.617188 9.789062 C 9.746094 9.789062 9.847656 9.699219 9.875 9.585938 C 9.902344 9.59375 9.9375 9.601562 9.96875 9.601562 C 10.085938 9.601562 10.183594 9.527344 10.222656 9.425781 C 10.285156 9.414062 10.34375 9.382812 10.382812 9.332031 C 10.398438 9.335938 10.414062 9.34375 10.433594 9.34375 C 10.582031 9.34375 10.699219 9.226562 10.699219 9.082031 C 10.699219 9.078125 10.699219 9.074219 10.699219 9.070312 C 10.71875 9.074219 10.742188 9.082031 10.765625 9.082031 C 10.914062 9.082031 11.03125 8.96875 11.03125 8.824219 C 11.03125 8.765625 11.007812 8.710938 10.972656 8.667969 C 11.0625 8.625 11.125 8.539062 11.125 8.4375 C 11.125 8.414062 11.117188 8.394531 11.113281 8.371094 C 11.125 8.375 11.140625 8.378906 11.152344 8.378906 C 11.300781 8.378906 11.421875 8.265625 11.421875 8.121094 C 11.421875 8.046875 11.386719 7.980469 11.332031 7.933594 C 11.363281 7.890625 11.382812 7.84375 11.382812 7.789062 C 11.382812 7.765625 11.375 7.742188 11.367188 7.71875 C 11.484375 7.691406 11.570312 7.59375 11.570312 7.476562 C 11.570312 7.402344 11.539062 7.335938 11.488281 7.289062 C 11.503906 7.257812 11.515625 7.21875 11.515625 7.179688 C 11.515625 7.125 11.492188 7.074219 11.460938 7.03125 C 11.46875 7.007812 11.476562 6.984375 11.476562 6.957031 C 11.476562 6.871094 11.433594 6.800781 11.367188 6.753906 C 11.367188 6.722656 11.359375 6.691406 11.347656 6.664062 C 11.433594 6.621094 11.496094 6.539062 11.496094 6.4375 C 11.496094 6.339844 11.433594 6.25 11.347656 6.207031 C 11.367188 6.171875 11.382812 6.132812 11.382812 6.085938 C 11.382812 6.007812 11.34375 5.9375 11.285156 5.890625 C 11.273438 5.792969 11.207031 5.710938 11.113281 5.679688 C 11.105469 5.640625 11.085938 5.601562 11.0625 5.574219 C 11.089844 5.53125 11.105469 5.492188 11.105469 5.441406 C 11.105469 5.296875 10.988281 5.179688 10.839844 5.179688 C 10.808594 5.179688 10.777344 5.1875 10.75 5.199219 C 10.746094 5.195312 10.742188 5.195312 10.742188 5.195312 C 10.773438 5.152344 10.792969 5.105469 10.792969 5.050781 C 10.792969 4.914062 10.679688 4.804688 10.542969 4.796875 C 10.515625 4.6875 10.425781 4.605469 10.308594 4.59375 C 10.300781 4.457031 10.1875 4.347656 10.042969 4.347656 C 9.96875 4.347656 9.902344 4.375 9.855469 4.421875 C 9.820312 4.410156 9.785156 4.402344 9.746094 4.402344 C 9.730469 4.402344 9.714844 4.410156 9.699219 4.414062 C 9.699219 4.410156 9.699219 4.40625 9.699219 4.402344 C 9.699219 4.261719 9.582031 4.144531 9.433594 4.144531 C 9.398438 4.144531 9.367188 4.152344 9.335938 4.160156 C 9.304688 4.128906 9.269531 4.101562 9.222656 4.085938 C 9.1875 3.980469 9.089844 3.90625 8.96875 3.90625 C 8.867188 3.90625 8.777344 3.960938 8.734375 4.046875 C 8.707031 4.039062 8.683594 4.03125 8.65625 4.03125 C 8.644531 4.03125 8.628906 4.039062 8.617188 4.039062 C 8.59375 3.921875 8.492188 3.832031 8.359375 3.832031 C 8.253906 3.832031 8.160156 3.890625 8.117188 3.980469 C 8.09375 3.863281 7.988281 3.773438 7.859375 3.773438 Z M 7.859375 3.773438 "/>
<path style=" stroke:none;fill-rule:evenodd;fill:rgb(0%,100%,49.803922%);fill-opacity:1;" d="M 7.769531 3.90625 C 7.667969 3.964844 7.632812 4.171875 7.472656 4.101562 C 6.8125 4.082031 6.152344 4.003906 5.492188 4.039062 C 4.492188 4.152344 3.648438 4.871094 3.210938 5.75 C 3.007812 6.160156 2.894531 6.613281 2.855469 7.066406 C 2.78125 7.183594 2.5625 7.15625 2.570312 7.328125 C 2.621094 7.433594 2.746094 7.515625 2.699219 7.652344 C 2.648438 7.753906 2.488281 7.828125 2.582031 7.957031 C 2.660156 8.050781 2.890625 8.023438 2.851562 8.195312 C 2.808594 8.292969 2.648438 8.371094 2.832031 8.40625 C 2.9375 8.507812 3.050781 8.632812 3.210938 8.59375 C 3.339844 8.542969 3.445312 8.621094 3.570312 8.628906 C 3.703125 8.601562 3.828125 8.566406 3.949219 8.648438 C 4.089844 8.695312 4.210938 8.613281 4.324219 8.550781 C 4.484375 8.582031 4.664062 8.707031 4.808594 8.566406 C 4.894531 8.476562 5.003906 8.355469 5.136719 8.441406 C 5.28125 8.492188 5.386719 8.328125 5.515625 8.363281 C 5.632812 8.4375 5.671875 8.617188 5.835938 8.625 C 6 8.664062 6.144531 8.550781 6.234375 8.429688 C 6.390625 8.394531 6.589844 8.519531 6.710938 8.355469 C 6.777344 8.238281 6.96875 8.242188 6.96875 8.402344 C 7.082031 8.671875 7.546875 8.660156 7.609375 8.363281 C 7.617188 8.230469 7.742188 8.183594 7.855469 8.226562 C 8.050781 8.214844 8.132812 8.464844 8.335938 8.414062 C 8.496094 8.398438 8.601562 8.269531 8.648438 8.128906 C 8.78125 8.042969 8.957031 8.167969 9.082031 8.046875 C 9.183594 7.960938 9.226562 7.808594 9.375 7.789062 C 9.472656 7.703125 9.59375 7.65625 9.726562 7.667969 C 9.902344 7.640625 10.007812 7.464844 10.007812 7.300781 C 10.105469 7.167969 10.300781 7.308594 10.414062 7.183594 C 10.582031 7.070312 10.582031 6.824219 10.464844 6.679688 C 10.476562 6.511719 10.746094 6.472656 10.695312 6.273438 C 10.675781 6.160156 10.765625 6.027344 10.890625 6.074219 C 10.996094 6.0625 11.179688 5.976562 11.136719 5.855469 C 11.042969 5.769531 10.882812 5.644531 10.984375 5.5 C 11.011719 5.347656 10.835938 5.265625 10.710938 5.308594 C 10.53125 5.242188 10.777344 5.015625 10.59375 4.953125 C 10.46875 4.914062 10.414062 4.796875 10.316406 4.734375 C 10.191406 4.691406 10.179688 4.53125 10.074219 4.476562 C 9.933594 4.449219 9.804688 4.609375 9.667969 4.507812 C 9.539062 4.46875 9.578125 4.246094 9.414062 4.273438 C 9.222656 4.308594 9.121094 4.121094 8.988281 4.023438 C 8.828125 3.988281 8.738281 4.25 8.570312 4.144531 C 8.46875 4.085938 8.441406 3.90625 8.292969 3.949219 C 8.210938 4.015625 8.054688 4.160156 7.988281 4 C 7.957031 3.910156 7.855469 3.878906 7.769531 3.90625 Z M 7.769531 3.90625 "/>
<path style=" stroke:none;fill-rule:evenodd;fill:rgb(0%,0%,0%);fill-opacity:1;" d="M 3.566406 1.574219 C 3.03125 1.710938 2.554688 2.019531 2.125 2.363281 C 1.660156 2.765625 1.242188 3.285156 1.148438 3.910156 C 1.109375 4.21875 1.332031 4.558594 1.664062 4.542969 C 2.09375 4.558594 2.484375 4.320312 2.847656 4.121094 C 3.492188 3.746094 4.15625 3.285156 4.457031 2.578125 C 4.566406 2.28125 4.464844 1.9375 4.214844 1.75 C 4.039062 1.59375 3.792969 1.535156 3.566406 1.574219 Z M 2.484375 2.199219 C 3.347656 1.636719 3.925781 1.402344 4.332031 2.027344 C 4.621094 2.46875 4.085938 3.222656 3.222656 3.785156 C 2.363281 4.34375 1.597656 4.703125 1.3125 4.261719 C 1.023438 3.820312 1.621094 2.761719 2.484375 2.199219 Z M 2.484375 2.199219 "/>
<path style=" stroke:none;fill-rule:evenodd;fill:rgb(93.333333%,83.921569%,69.411765%);fill-opacity:1;" d="M 4.921875 1.324219 C 4.226562 1.382812 3.558594 1.722656 3.085938 2.234375 C 2.015625 2.410156 1.042969 3.265625 0.890625 4.363281 C 0.730469 5.339844 1.289062 6.339844 2.136719 6.816406 C 3.289062 7.5 4.917969 7.28125 5.796875 6.25 C 6.222656 5.773438 6.421875 5.125 6.386719 4.492188 C 6.398438 3.691406 6.734375 3.242188 6.320312 2.082031 C 6.144531 1.578125 5.628906 1.320312 5.140625 1.320312 C 5.066406 1.316406 4.996094 1.320312 4.921875 1.324219 Z M 4.921875 1.324219 "/>
<path style=" stroke:none;fill-rule:evenodd;fill:rgb(100%,66.666667%,33.72549%);fill-opacity:1;" d="M 4.921875 1.347656 C 4.226562 1.40625 3.558594 1.746094 3.085938 2.261719 C 2.015625 2.4375 1.042969 3.289062 0.890625 4.386719 C 0.730469 5.367188 1.289062 6.363281 2.136719 6.839844 C 3.289062 7.523438 4.917969 7.308594 5.796875 6.273438 C 6.222656 5.796875 6.421875 5.152344 6.386719 4.519531 C 6.398438 3.714844 6.734375 3.269531 6.320312 2.105469 C 6.144531 1.605469 5.628906 1.34375 5.140625 1.34375 C 5.066406 1.339844 4.996094 1.34375 4.921875 1.347656 Z M 4.921875 1.347656 "/>
<path style=" stroke:none;fill-rule:evenodd;fill:rgb(100%,100%,100%);fill-opacity:1;" d="M 3.828125 1.660156 C 3.71875 1.671875 3.589844 1.730469 3.460938 1.820312 C 3.214844 2 3.066406 2.261719 3.121094 2.414062 C 3.316406 2.394531 3.5625 2.300781 3.800781 2.125 C 3.898438 2.050781 3.984375 1.96875 4.0625 1.886719 C 4.070312 1.839844 4.070312 1.792969 4.050781 1.757812 C 4.015625 1.679688 3.933594 1.648438 3.828125 1.660156 Z M 3.828125 1.660156 "/>
<path style=" stroke:none;fill-rule:evenodd;fill:rgb(100%,100%,100%);fill-opacity:1;" d="M 4.394531 1.769531 C 4.144531 1.757812 3.898438 1.996094 3.851562 2.316406 C 3.847656 2.390625 3.894531 2.445312 3.929688 2.496094 C 3.984375 2.558594 4.042969 2.625 4.117188 2.648438 C 4.355469 2.671875 4.601562 2.703125 4.820312 2.839844 C 4.882812 2.8125 4.863281 2.710938 4.839844 2.652344 C 4.804688 2.5 4.828125 2.332031 4.890625 2.199219 C 4.914062 2.117188 4.84375 2.0625 4.816406 2.003906 C 4.707031 1.855469 4.550781 1.765625 4.394531 1.769531 Z M 4.394531 1.769531 "/>
<path style=" stroke:none;fill-rule:evenodd;fill:rgb(0%,0%,0%);fill-opacity:1;" d="M 4.921875 1.230469 C 4.210938 1.296875 3.53125 1.632812 3.042969 2.148438 C 1.921875 2.34375 0.917969 3.269531 0.789062 4.421875 C 0.648438 5.542969 1.394531 6.660156 2.429688 7.0625 C 3.640625 7.585938 5.214844 7.230469 5.996094 6.140625 C 6.378906 5.640625 6.503906 4.996094 6.488281 4.378906 C 6.53125 3.769531 6.714844 3.152344 6.542969 2.542969 C 6.464844 2.09375 6.269531 1.609375 5.832031 1.402344 C 5.554688 1.246094 5.234375 1.214844 4.921875 1.230469 Z M 4.921875 1.324219 C 4.226562 1.382812 3.558594 1.722656 3.085938 2.234375 C 2.015625 2.410156 1.042969 3.265625 0.890625 4.363281 C 0.730469 5.339844 1.289062 6.339844 2.136719 6.816406 C 3.289062 7.5 4.917969 7.28125 5.796875 6.25 C 6.222656 5.773438 6.421875 5.125 6.386719 4.492188 C 6.398438 3.691406 6.734375 3.242188 6.320312 2.082031 C 6.144531 1.578125 5.628906 1.320312 5.140625 1.320312 C 5.066406 1.316406 4.996094 1.320312 4.921875 1.324219 Z M 4.921875 1.324219 "/>
<path style=" stroke:none;fill-rule:evenodd;fill:rgb(0%,100%,49.803922%);fill-opacity:1;" d="M 4.929688 0.421875 C 4.75 0.378906 4.667969 0.625 4.515625 0.566406 C 4.285156 0.53125 4.035156 0.765625 4.121094 1 C 4.109375 1.046875 3.898438 0.976562 3.824219 1.066406 C 3.625 1.175781 3.605469 1.488281 3.796875 1.613281 C 3.957031 1.765625 4.199219 1.648438 4.332031 1.609375 C 4.492188 1.785156 4.722656 1.578125 4.871094 1.730469 C 5.015625 1.824219 5.1875 1.660156 5.269531 1.839844 C 5.382812 1.933594 5.539062 1.890625 5.566406 2.0625 C 5.632812 2.191406 5.839844 2.199219 5.914062 2.21875 C 5.910156 2.445312 6.171875 2.617188 6.378906 2.542969 C 6.4375 2.746094 6.6875 2.847656 6.878906 2.769531 C 6.859375 3.058594 7.238281 3.222656 7.464844 3.066406 C 7.699219 2.964844 7.617188 2.632812 7.539062 2.53125 C 7.738281 2.46875 7.847656 2.207031 7.710938 2.035156 C 7.628906 1.871094 7.371094 1.957031 7.394531 1.746094 C 7.359375 1.609375 7.164062 1.570312 7.101562 1.515625 C 7.179688 1.265625 6.878906 1.035156 6.648438 1.121094 C 6.59375 0.9375 6.375 0.824219 6.191406 0.886719 C 6.179688 0.628906 5.855469 0.484375 5.640625 0.609375 C 5.539062 0.453125 5.308594 0.398438 5.148438 0.496094 C 5.082031 0.449219 5.007812 0.421875 4.929688 0.421875 Z M 4.929688 0.421875 "/>
<path style=" stroke:none;fill-rule:evenodd;fill:rgb(0%,0%,0%);fill-opacity:1;" d="M 4.835938 0.332031 C 4.699219 0.371094 4.597656 0.515625 4.445312 0.476562 C 4.21875 0.480469 4 0.691406 4.019531 0.921875 C 3.683594 0.898438 3.4375 1.332031 3.652344 1.597656 C 3.789062 1.796875 4.074219 1.824219 4.277344 1.71875 C 4.425781 1.78125 4.585938 1.773438 4.742188 1.773438 C 4.855469 1.832031 4.976562 1.871094 5.105469 1.84375 C 5.210938 1.867188 5.28125 1.980469 5.398438 2.003906 C 5.507812 2.074219 5.53125 2.234375 5.679688 2.257812 C 5.847656 2.242188 5.84375 2.394531 5.933594 2.496094 C 6.03125 2.601562 6.183594 2.667969 6.328125 2.648438 C 6.414062 2.816406 6.617188 2.910156 6.800781 2.882812 C 6.890625 3.28125 7.546875 3.335938 7.683594 2.945312 C 7.730469 2.824219 7.710938 2.6875 7.660156 2.570312 C 7.957031 2.417969 7.910156 1.898438 7.566406 1.832031 C 7.4375 1.777344 7.484375 1.582031 7.328125 1.539062 C 7.1875 1.503906 7.203125 1.378906 7.164062 1.269531 C 7.078125 1.101562 6.886719 0.992188 6.703125 1.019531 C 6.617188 0.863281 6.4375 0.765625 6.261719 0.78125 C 6.191406 0.542969 5.894531 0.414062 5.667969 0.5 C 5.542969 0.363281 5.320312 0.316406 5.152344 0.394531 C 5.054688 0.335938 4.941406 0.328125 4.835938 0.332031 Z M 4.929688 0.421875 C 4.75 0.378906 4.667969 0.625 4.515625 0.566406 C 4.285156 0.53125 4.035156 0.765625 4.121094 1 C 4.109375 1.046875 3.898438 0.976562 3.824219 1.066406 C 3.625 1.175781 3.605469 1.488281 3.796875 1.613281 C 3.957031 1.765625 4.199219 1.648438 4.332031 1.609375 C 4.492188 1.785156 4.722656 1.578125 4.871094 1.730469 C 5.015625 1.824219 5.1875 1.660156 5.269531 1.839844 C 5.382812 1.933594 5.539062 1.890625 5.566406 2.0625 C 5.632812 2.191406 5.839844 2.199219 5.914062 2.21875 C 5.910156 2.445312 6.171875 2.617188 6.378906 2.542969 C 6.4375 2.746094 6.6875 2.847656 6.878906 2.769531 C 6.859375 3.058594 7.238281 3.222656 7.464844 3.066406 C 7.699219 2.964844 7.617188 2.632812 7.539062 2.53125 C 7.738281 2.46875 7.847656 2.207031 7.710938 2.035156 C 7.628906 1.871094 7.371094 1.957031 7.394531 1.746094 C 7.359375 1.609375 7.164062 1.570312 7.101562 1.515625 C 7.179688 1.265625 6.878906 1.035156 6.648438 1.121094 C 6.59375 0.9375 6.375 0.824219 6.191406 0.886719 C 6.179688 0.628906 5.855469 0.484375 5.640625 0.609375 C 5.539062 0.453125 5.308594 0.398438 5.148438 0.496094 C 5.082031 0.449219 5.007812 0.421875 4.929688 0.421875 Z M 4.929688 0.421875 "/>
<path style=" stroke:none;fill-rule:evenodd;fill:rgb(0%,100%,49.803922%);fill-opacity:1;" d="M 7.863281 4.863281 C 7.863281 5.953125 7.738281 6.601562 6.945312 6.601562 C 6.390625 6.601562 6.03125 5.695312 6.03125 4.605469 C 6.03125 3.515625 6.15625 2.632812 6.710938 2.632812 C 7.269531 2.632812 7.863281 3.773438 7.863281 4.863281 Z M 7.863281 4.863281 "/>
<path style=" stroke:none;fill-rule:evenodd;fill:rgb(0%,0%,0%);fill-opacity:1;" d="M 3.699219 2.15625 C 3.597656 2.226562 3.453125 2.210938 3.375 2.125 C 3.292969 2.035156 3.308594 1.90625 3.410156 1.835938 C 3.410156 1.761719 3.480469 1.695312 3.566406 1.695312 C 3.65625 1.695312 3.726562 1.761719 3.726562 1.835938 Z M 3.699219 2.15625 "/>
<path style=" stroke:none;fill-rule:evenodd;fill:rgb(0%,0%,0%);fill-opacity:1;" d="M 4.464844 2.417969 C 4.367188 2.5 4.226562 2.484375 4.148438 2.382812 C 4.070312 2.285156 4.085938 2.136719 4.183594 2.058594 C 4.183594 1.957031 4.261719 1.875 4.363281 1.875 C 4.460938 1.875 4.542969 1.957031 4.542969 2.058594 Z M 4.464844 2.417969 "/>
<path style=" stroke:none;fill-rule:evenodd;fill:rgb(0%,0%,0%);fill-opacity:1;" d="M 6.628906 2.550781 C 6.234375 2.648438 6.105469 3.085938 6.042969 3.4375 C 5.933594 4.285156 5.898438 5.175781 6.195312 5.988281 C 6.328125 6.34375 6.621094 6.71875 7.039062 6.691406 C 7.429688 6.691406 7.792969 6.402344 7.863281 6.015625 C 8 5.519531 7.992188 4.996094 7.957031 4.488281 C 7.871094 3.847656 7.652344 3.183594 7.175781 2.726562 C 7.023438 2.601562 6.832031 2.507812 6.628906 2.550781 Z M 7.886719 4.863281 C 7.886719 5.953125 7.765625 6.601562 6.972656 6.601562 C 6.414062 6.601562 6.054688 5.695312 6.054688 4.605469 C 6.054688 3.515625 6.179688 2.632812 6.738281 2.632812 C 7.292969 2.632812 7.886719 3.773438 7.886719 4.863281 Z M 7.886719 4.863281 "/>
<path style=" stroke:none;fill-rule:evenodd;fill:rgb(0%,0%,0%);fill-opacity:1;" d="M 1.875 4.058594 C 1.925781 4.128906 1.929688 4.21875 1.957031 4.304688 C 1.972656 4.371094 2.003906 4.4375 2.046875 4.496094 C 2.09375 4.5625 2.128906 4.640625 2.113281 4.722656 C 2.105469 4.785156 2.074219 4.851562 2.019531 4.886719 C 1.972656 4.902344 1.941406 4.855469 1.921875 4.816406 C 1.882812 4.742188 1.890625 4.65625 1.882812 4.570312 C 1.875 4.492188 1.875 4.410156 1.871094 4.328125 C 1.855469 4.253906 1.820312 4.179688 1.847656 4.101562 C 1.851562 4.085938 1.851562 4.058594 1.875 4.058594 Z M 1.875 4.058594 "/>
<path style=" stroke:none;fill-rule:evenodd;fill:rgb(0%,0%,0%);fill-opacity:1;" d="M 2.097656 5.222656 C 2.105469 5.40625 2.074219 5.597656 2.128906 5.777344 C 2.167969 5.933594 2.214844 6.089844 2.230469 6.253906 C 2.238281 6.277344 2.214844 6.320312 2.195312 6.28125 C 2.144531 6.105469 2.085938 5.929688 2.0625 5.746094 C 2.050781 5.609375 2.078125 5.46875 2.058594 5.335938 C 2.054688 5.289062 2.09375 5.242188 2.097656 5.207031 Z M 2.097656 5.222656 "/>
<path style=" stroke:none;fill-rule:evenodd;fill:rgb(0%,0%,0%);fill-opacity:1;" d="M 3.089844 4.367188 C 2.972656 4.386719 2.878906 4.472656 2.773438 4.519531 C 2.703125 4.554688 2.628906 4.574219 2.554688 4.589844 C 2.464844 4.613281 2.371094 4.648438 2.320312 4.730469 C 2.285156 4.78125 2.265625 4.847656 2.285156 4.90625 C 2.3125 4.945312 2.371094 4.9375 2.410156 4.925781 C 2.5 4.90625 2.570312 4.839844 2.636719 4.78125 C 2.71875 4.714844 2.796875 4.644531 2.875 4.578125 C 2.945312 4.53125 3.03125 4.5 3.074219 4.425781 C 3.082031 4.40625 3.109375 4.382812 3.089844 4.367188 Z M 3.089844 4.367188 "/>
</g>
</svg>
