<?xml version="1.0" encoding="UTF-8"?>
<svg xmlns="http://www.w3.org/2000/svg" xmlns:xlink="http://www.w3.org/1999/xlink" width="16pt" height="19pt" viewBox="0 0 16 19" version="1.1">
<g id="surface1">
<path style=" stroke:none;fill-rule:nonzero;fill:rgb(0%,0%,0%);fill-opacity:1;" d="M 11.042969 0.652344 C 11.5625 0.527344 12.351562 0.628906 12.507812 1.230469 C 12.566406 1.449219 12.558594 1.652344 12.558594 1.875 C 12.558594 2.097656 12.742188 2.0625 12.925781 2.210938 C 13.304688 2.527344 12.988281 2.753906 13.144531 3.050781 C 13.222656 3.199219 14.140625 3.535156 14.34375 3.632812 C 15.039062 3.964844 15.386719 4.441406 15.660156 5.175781 C 15.804688 5.558594 16.097656 6.082031 15.757812 6.28125 C 15.050781 6.695312 13.453125 6.511719 12.828125 6.054688 C 12.492188 5.8125 12.179688 5.550781 11.863281 5.289062 C 11.835938 5.816406 11.824219 6.347656 11.785156 6.875 C 11.757812 7.242188 11.519531 8.257812 11.738281 8.433594 C 11.996094 8.636719 12.761719 8.414062 12.832031 8.898438 C 12.867188 9.144531 12.945312 9.390625 12.886719 9.640625 C 13.613281 9.523438 13.867188 10.195312 13.867188 10.734375 C 13.867188 10.761719 14.433594 10.878906 14.539062 10.929688 C 14.769531 11.042969 14.933594 11.242188 14.976562 11.484375 C 15.050781 11.871094 14.699219 12.128906 15.105469 12.367188 C 15.550781 12.625 15.824219 13.121094 15.757812 13.648438 C 15.746094 13.769531 15.5625 14.035156 15.574219 14.121094 C 15.585938 14.183594 15.792969 14.359375 15.832031 14.441406 C 15.964844 14.707031 15.933594 15.027344 15.960938 15.3125 C 15.996094 15.679688 15.523438 15.757812 15.265625 15.855469 C 14.808594 16.023438 14.980469 16.425781 14.621094 16.640625 C 14.351562 16.808594 14.003906 16.574219 13.730469 16.6875 C 13.410156 16.824219 13.171875 17.261719 12.84375 17.453125 C 12.320312 17.757812 11.851562 17.515625 11.457031 17.777344 C 11.125 17.996094 11.027344 18.191406 10.601562 18.273438 C 10.46875 18.300781 10.332031 18.3125 10.199219 18.332031 C 10.132812 18.34375 10.03125 18.304688 9.972656 18.28125 C 9.914062 18.253906 9.71875 18.515625 9.644531 18.574219 C 9.046875 19.046875 7.867188 19.175781 7.269531 18.664062 C 7.113281 18.53125 7.023438 18.304688 6.789062 18.285156 C 6.625 18.273438 6.378906 18.460938 6.179688 18.472656 C 5.527344 18.523438 5.230469 18.113281 4.847656 17.671875 C 4.851562 17.679688 3.945312 17.835938 3.761719 17.765625 C 3.386719 17.621094 2.890625 17.1875 3.039062 16.757812 C 2.46875 16.839844 2.035156 16.5625 1.675781 16.167969 C 1.507812 15.984375 1.414062 15.722656 1.414062 15.476562 C 1.414062 15.175781 1.140625 15.101562 0.9375 14.855469 C 0.640625 14.492188 0.476562 14.039062 0.652344 13.589844 C 0.722656 13.402344 0.871094 13.332031 0.992188 13.1875 C 1.074219 13.09375 1.417969 12.972656 1.453125 12.902344 C 1.625 12.558594 1.144531 11.824219 1.695312 11.554688 C 1.859375 11.476562 2.179688 11.460938 2.234375 11.261719 C 2.289062 11.050781 2.1875 10.800781 2.246094 10.574219 C 2.347656 10.171875 2.640625 9.859375 3.0625 9.757812 C 3.414062 9.671875 3.269531 9.464844 3.449219 9.167969 C 3.617188 8.886719 4.097656 8.683594 4.210938 8.421875 C 4.269531 8.292969 4.121094 7.90625 4.109375 7.761719 C 4.085938 7.480469 4.066406 7.199219 4.054688 6.917969 C 4.03125 6.40625 4.03125 5.890625 3.980469 5.382812 C 3.585938 5.617188 3.367188 6.027344 2.933594 6.265625 C 2.316406 6.609375 1.398438 6.851562 0.683594 6.847656 C -0.765625 6.839844 0.46875 4.773438 0.964844 4.261719 C 1.203125 4.015625 1.472656 3.8125 1.765625 3.628906 C 1.925781 3.527344 2.675781 3.351562 2.746094 3.230469 C 2.792969 3.148438 2.628906 2.851562 2.636719 2.746094 C 2.648438 2.550781 2.707031 2.449219 2.824219 2.292969 C 2.914062 2.183594 2.992188 2.101562 3.121094 2.027344 C 3.28125 1.933594 3.09375 1.628906 3.101562 1.441406 C 3.121094 0.890625 3.652344 0.574219 4.195312 0.621094 C 4.523438 0.648438 4.484375 0.644531 4.761719 0.507812 C 4.945312 0.421875 5.125 0.386719 5.324219 0.355469 C 5.542969 0.320312 5.675781 0.304688 5.886719 0.355469 C 6.046875 0.390625 6.25 0.597656 6.414062 0.46875 C 6.921875 0.0585938 7.980469 -0.121094 8.367188 0.640625 C 8.890625 0.0390625 10.789062 -0.4375 11.042969 0.652344 "/>
<path style=" stroke:none;fill-rule:nonzero;fill:rgb(94.901961%,100%,100%);fill-opacity:1;" d="M 10.738281 0.980469 C 10.695312 1.640625 11.144531 1.109375 11.359375 1.066406 C 11.578125 1.019531 12.007812 1.25 12.125 1.4375 C 12.257812 1.652344 11.949219 2.121094 12.128906 2.320312 C 12.355469 2.5625 12.667969 2.335938 12.667969 2.808594 C 12.667969 3.664062 11.160156 2.441406 11.542969 3.363281 C 11.671875 3.675781 11.398438 4.039062 11.078125 4.140625 C 10.601562 4.292969 10.335938 3.546875 10 3.816406 C 9.878906 3.90625 10.015625 4.113281 9.859375 4.226562 C 9.710938 4.335938 9.488281 4.324219 9.3125 4.300781 C 9.152344 4.277344 8.894531 4.265625 8.769531 4.1875 C 8.679688 4.128906 8.601562 3.828125 8.488281 3.820312 C 8.238281 3.800781 8.210938 4.386719 8.050781 4.542969 C 7.683594 4.894531 7.566406 4.425781 7.433594 4.121094 C 7.089844 3.347656 6.796875 4.308594 6.449219 4.53125 C 6.089844 4.757812 5.742188 4.605469 5.390625 4.472656 C 5.027344 4.328125 5.429688 3.648438 5.007812 3.535156 C 4.589844 3.425781 4.914062 4.078125 4.554688 4.121094 C 4.203125 4.164062 3.972656 4.0625 3.90625 3.714844 C 3.839844 3.359375 4.269531 3.109375 3.796875 3.015625 C 3.597656 2.976562 3.308594 3.28125 3.078125 3.074219 C 2.75 2.785156 3.144531 2.4375 3.425781 2.378906 C 4.0625 2.238281 3.664062 2.054688 3.539062 1.667969 C 3.464844 1.433594 3.527344 1.042969 3.816406 0.988281 C 4.171875 0.917969 4.746094 1.613281 4.984375 1.371094 C 5.121094 1.230469 4.910156 0.761719 5.214844 0.617188 C 5.675781 0.390625 6.0625 1.210938 6.339844 1.40625 C 6.683594 1.191406 6.660156 0.730469 7.097656 0.628906 C 7.613281 0.503906 7.796875 0.875 8.074219 1.078125 C 8.613281 1.46875 8.652344 0.925781 9.039062 0.691406 C 9.535156 0.390625 10.382812 0.542969 10.738281 0.980469 "/>
<path style=" stroke:none;fill-rule:nonzero;fill:rgb(74.901961%,74.901961%,74.901961%);fill-opacity:1;" d="M 14.878906 4.363281 C 15.066406 4.632812 15.226562 4.933594 15.335938 5.238281 C 15.390625 5.378906 15.453125 5.519531 15.476562 5.664062 C 15.527344 5.949219 15.617188 5.910156 15.378906 6.042969 C 14.757812 6.394531 13.964844 5.9375 13.40625 5.785156 C 12.605469 5.5625 11.957031 4.925781 11.691406 4.175781 C 12.019531 4.585938 12.40625 4.945312 12.882812 5.1875 C 13.253906 5.378906 14.234375 5.683594 14.554688 5.304688 C 14.765625 5.058594 14.058594 3.9375 13.71875 3.855469 C 13.375 3.773438 13.222656 3.382812 12.839844 3.335938 C 13.644531 3.4375 14.277344 3.925781 14.878906 4.363281 "/>
<path style=" stroke:none;fill-rule:nonzero;fill:rgb(87.843137%,78.431373%,87.843137%);fill-opacity:1;" d="M 12.71875 3.667969 C 13.386719 3.808594 13.960938 4.402344 14.097656 5.039062 C 13.375 5.210938 12.859375 4.746094 12.339844 4.339844 C 12.035156 4.109375 11.777344 3.835938 11.972656 3.464844 C 12.027344 3.355469 12.671875 3.519531 12.71875 3.667969 "/>
<path style=" stroke:none;fill-rule:nonzero;fill:rgb(0%,0%,0%);fill-opacity:1;" d="M 13.597656 4.660156 C 13.523438 5.085938 12.464844 4.046875 12.277344 3.902344 C 12.097656 3.765625 12.359375 3.785156 12.449219 3.808594 C 12.578125 3.84375 12.730469 3.992188 12.839844 4.070312 C 13.101562 4.253906 13.351562 4.449219 13.597656 4.660156 "/>
<path style=" stroke:none;fill-rule:nonzero;fill:rgb(74.901961%,74.901961%,74.901961%);fill-opacity:1;" d="M 3.136719 3.621094 C 2.742188 3.800781 2.332031 3.914062 2 4.28125 C 1.792969 4.511719 0.925781 5.660156 1.550781 5.71875 C 2.078125 5.769531 2.648438 5.488281 3.09375 5.257812 C 3.417969 5.089844 3.519531 4.820312 3.761719 4.601562 C 3.875 4.496094 3.816406 4.34375 3.957031 4.53125 C 3.625 4.792969 3.601562 5.34375 3.253906 5.589844 C 2.40625 6.1875 1.375 6.542969 0.316406 6.503906 C 0.460938 5.796875 0.621094 5.109375 1.148438 4.566406 C 1.457031 4.246094 2.683594 3.175781 3.136719 3.621094 "/>
<path style=" stroke:none;fill-rule:nonzero;fill:rgb(74.901961%,74.901961%,74.901961%);fill-opacity:1;" d="M 11.347656 4.339844 C 11.289062 4.480469 11.328125 4.578125 11.386719 4.714844 C 11.496094 4.984375 11.460938 5.230469 11.445312 5.523438 C 11.402344 6.359375 11.328125 7.191406 11.195312 8.015625 C 10.964844 9.433594 10.851562 11.601562 9.710938 12.667969 C 9.117188 13.222656 8.152344 13.132812 7.414062 12.910156 C 6.585938 12.660156 6.183594 12.125 5.796875 11.414062 C 5.054688 10.046875 4.613281 8.769531 4.480469 7.25 C 4.425781 6.628906 3.964844 4.398438 4.882812 4.328125 C 5.101562 4.3125 5.535156 4.882812 5.921875 4.96875 C 6.339844 5.058594 6.796875 4.960938 7.144531 4.707031 C 7.414062 5.257812 8.570312 5.171875 8.683594 4.554688 C 9.214844 4.824219 9.828125 4.734375 10.230469 4.347656 C 10.378906 4.203125 10.507812 4.402344 10.652344 4.433594 C 10.960938 4.507812 11.050781 4.484375 11.347656 4.339844 "/>
<path style=" stroke:none;fill-rule:nonzero;fill:rgb(87.843137%,78.431373%,87.843137%);fill-opacity:1;" d="M 3.613281 4.234375 C 3.648438 4.371094 3.300781 4.773438 3.15625 4.855469 C 2.71875 5.109375 2.246094 5.304688 1.71875 5.382812 C 2.011719 4.695312 2.609375 3.96875 3.417969 3.867188 C 3.457031 3.996094 3.570312 4.167969 3.613281 4.234375 "/>
<path style=" stroke:none;fill-rule:nonzero;fill:rgb(0%,0%,0%);fill-opacity:1;" d="M 3.394531 4.117188 C 3.164062 4.347656 2.894531 4.542969 2.636719 4.742188 C 2.558594 4.804688 2.105469 5.304688 2.097656 4.96875 C 2.097656 4.777344 3.195312 3.957031 3.394531 4.117188 "/>
<path style=" stroke:none;fill-rule:nonzero;fill:rgb(0%,0%,0%);fill-opacity:1;" d="M 8.78125 5.546875 C 8.976562 5.84375 8.785156 6.371094 8.367188 6.152344 C 7.898438 5.902344 8.511719 5.316406 8.78125 5.546875 "/>
<path style=" stroke:none;fill-rule:nonzero;fill:rgb(0%,0%,0%);fill-opacity:1;" d="M 7.363281 5.832031 C 7.253906 6.214844 6.734375 6.347656 6.636719 5.871094 C 6.527344 5.328125 7.25 5.492188 7.363281 5.832031 "/>
<path style=" stroke:none;fill-rule:nonzero;fill:rgb(94.901961%,100%,100%);fill-opacity:1;" d="M 12.410156 9.320312 C 12.417969 9.535156 12.273438 9.898438 12.472656 10.066406 C 12.644531 10.210938 13.097656 10.097656 13.304688 10.34375 C 13.535156 10.621094 13.246094 10.832031 13.304688 11.070312 C 13.347656 11.253906 13.496094 11.253906 13.667969 11.355469 C 13.671875 11.308594 13.695312 11.269531 13.695312 11.210938 C 14.453125 11.394531 14.59375 11.605469 14.414062 12.277344 C 14.226562 12.984375 15.457031 12.8125 15.332031 13.613281 C 15.285156 13.914062 14.78125 14.074219 15.105469 14.386719 C 15.320312 14.59375 15.554688 15.113281 15.378906 15.398438 C 15.191406 15.707031 14.851562 15.554688 14.609375 15.847656 C 14.339844 16.175781 14.269531 16.308594 13.792969 16.261719 C 13.84375 15.769531 14.246094 15.765625 14.398438 15.335938 C 14.519531 14.976562 14.527344 14.625 14.425781 14.257812 C 14.382812 14.097656 14.15625 13.894531 14.1875 13.726562 C 14.265625 13.351562 14.0625 12.878906 13.644531 12.738281 C 12.984375 12.519531 13.59375 13.136719 13.683594 13.351562 C 13.773438 13.574219 13.640625 13.648438 13.65625 13.839844 C 13.679688 14.066406 13.769531 14.046875 13.878906 14.253906 C 14.070312 14.625 13.988281 15.042969 13.683594 15.292969 C 13.496094 15.441406 13.355469 15.398438 13.265625 15.671875 C 13.179688 15.9375 13.351562 16.199219 13.152344 16.445312 C 12.972656 16.667969 12.636719 16.863281 12.386719 17 C 12.238281 17.085938 12.09375 17.132812 11.921875 17.160156 C 11.773438 17.1875 11.675781 17.035156 11.605469 17.042969 C 11.289062 17.082031 10.996094 17.597656 10.5 17.707031 C 10.011719 17.808594 9.839844 17.335938 9.492188 17.765625 C 9.171875 18.15625 9.117188 18.296875 8.527344 18.390625 C 7.761719 18.515625 7.601562 18.175781 7.167969 17.707031 C 6.828125 17.335938 6.777344 17.625 6.355469 17.789062 C 6.078125 17.898438 5.527344 17.667969 5.359375 17.457031 C 5.269531 17.339844 5.324219 17.140625 5.152344 17.066406 C 4.976562 16.992188 4.601562 17.234375 4.394531 17.25 C 4.007812 17.28125 3.417969 17.125 3.417969 16.660156 C 3.417969 16.515625 3.523438 16.367188 3.453125 16.226562 C 3.402344 16.121094 3.125 16.027344 3.035156 15.9375 C 2.8125 15.722656 2.660156 15.191406 2.878906 14.914062 C 3.058594 14.691406 3.566406 14.816406 3.355469 14.382812 C 3.289062 14.242188 3.070312 14.21875 2.992188 14.082031 C 2.878906 13.890625 2.90625 13.636719 2.953125 13.429688 C 2.980469 13.3125 3.296875 12.527344 2.878906 12.78125 C 2.585938 12.960938 2.453125 13.515625 2.453125 13.816406 C 2.453125 13.949219 2.46875 14.105469 2.53125 14.230469 C 2.671875 14.5 2.539062 14.515625 2.429688 14.832031 C 2.246094 15.359375 2.4375 15.679688 2.550781 16.144531 C 2.140625 16.023438 1.78125 15.882812 1.78125 15.410156 C 1.78125 14.976562 2.148438 14.996094 1.769531 14.726562 C 1.523438 14.550781 0.957031 14.359375 1.113281 13.902344 C 1.171875 13.746094 1.320312 13.609375 1.464844 13.519531 C 1.597656 13.433594 1.800781 13.480469 1.867188 13.449219 C 2.171875 13.296875 2.109375 13.125 1.910156 12.867188 C 1.640625 12.519531 1.925781 12.160156 2.234375 11.933594 C 2.363281 11.839844 3.070312 11.71875 2.9375 11.539062 C 2.660156 11.167969 2.628906 10.816406 2.910156 10.457031 C 3.230469 10.046875 3.675781 10.589844 3.929688 10.21875 C 4.117188 9.945312 3.695312 9.699219 3.773438 9.402344 C 3.8125 9.242188 4.125 8.996094 4.273438 8.941406 C 4.621094 10.148438 5.085938 11.21875 5.871094 12.222656 C 6.191406 12.632812 6.746094 13.234375 7.253906 13.425781 C 7.796875 13.625 8.707031 13.558594 9.246094 13.398438 C 10.277344 13.09375 10.894531 11.476562 11.203125 10.578125 C 11.375 10.082031 11.527344 9.605469 11.605469 9.082031 C 11.640625 8.855469 12.355469 9.070312 12.410156 9.320312 "/>
<path style=" stroke:none;fill-rule:nonzero;fill:rgb(0%,0%,0%);fill-opacity:1;" d="M 9.550781 11.6875 C 9.855469 12.460938 7.160156 12.566406 6.875 11.746094 C 6.710938 11.269531 7.363281 11.070312 7.75 11.070312 C 8.285156 11.070312 9.613281 10.941406 9.550781 11.6875 "/>
</g>
</svg>
